<?xml version="1.0" encoding="UTF-8"?>
<!DOCTYPE svg PUBLIC "-//W3C//DTD SVG 1.1//EN" "http://www.w3.org/Graphics/SVG/1.1/DTD/svg11.dtd">
<svg xmlns="http://www.w3.org/2000/svg" version="1.1" width="418px" height="418px" style="shape-rendering:geometricPrecision; text-rendering:geometricPrecision; image-rendering:optimizeQuality; fill-rule:evenodd; clip-rule:evenodd" xmlns:xlink="http://www.w3.org/1999/xlink">
<g><path style="opacity:1" fill="#121212" d="M 269.5,8.5 C 323.269,25.4709 364.102,58.4709 392,107.5C 401.715,125.149 408.549,143.815 412.5,163.5C 415.665,190.088 416.331,216.754 414.5,243.5C 402.276,308.205 367.943,357.372 311.5,391C 290.291,403.125 267.624,410.958 243.5,414.5C 220.167,415.833 196.833,415.833 173.5,414.5C 108.791,402.272 59.6245,367.938 26,311.5C 13.875,290.291 6.04167,267.624 2.5,243.5C 0.929466,218.133 1.2628,192.8 3.5,167.5C 16.9306,103.776 51.9306,55.9425 108.5,24C 115.582,20.1433 122.915,16.9766 130.5,14.5C 141.162,11.7815 151.829,8.94816 162.5,6C 184.307,1.77087 206.307,0.43754 228.5,2C 242.258,3.73764 255.925,5.90431 269.5,8.5 Z"/></g>
<g><path style="opacity:1" fill="#252525" d="M 188.5,-0.5 C 201.833,-0.5 215.167,-0.5 228.5,-0.5C 242.459,1.10494 256.125,4.10494 269.5,8.5C 255.925,5.90431 242.258,3.73764 228.5,2C 206.307,0.43754 184.307,1.77087 162.5,6C 151.829,8.94816 141.162,11.7815 130.5,14.5C 149.123,6.67771 168.456,1.67771 188.5,-0.5 Z"/></g>
<g><path style="opacity:1" fill="#641ef9" d="M 154.5,103.5 C 162.449,102.867 170.116,104.034 177.5,107C 217.833,130.667 258.167,154.333 298.5,178C 315.002,192.514 317.836,209.347 307,228.5C 304.719,231.903 301.886,234.737 298.5,237C 257.663,260.919 216.663,284.586 175.5,308C 156.023,313.398 140.523,307.898 129,291.5C 127.382,287.932 126.049,284.265 125,280.5C 124.333,231.167 124.333,181.833 125,132.5C 129.421,117.245 139.254,107.578 154.5,103.5 Z"/></g>
<g><path style="opacity:1" fill="#121213" d="M 156.5,134.5 C 161.449,133.959 166.116,134.792 170.5,137C 208.082,159.041 245.582,181.207 283,203.5C 283.325,205.553 282.991,207.553 282,209.5C 278.778,212.388 275.278,214.888 271.5,217C 235.241,237.601 199.241,258.601 163.5,280C 160.706,280.174 158.206,279.34 156,277.5C 155.172,229.763 155.339,182.096 156.5,134.5 Z"/></g>
<g><path style="opacity:1" fill="#272727" d="M 3.5,167.5 C 1.2628,192.8 0.929466,218.133 2.5,243.5C 1.33746,238.863 0.337464,234.196 -0.5,229.5C -0.5,215.5 -0.5,201.5 -0.5,187.5C 0.555063,180.783 1.8884,174.117 3.5,167.5 Z"/></g>
<g><path style="opacity:1" fill="#262626" d="M 412.5,163.5 C 414.705,171.735 416.372,180.068 417.5,188.5C 417.5,201.833 417.5,215.167 417.5,228.5C 416.718,233.537 415.718,238.537 414.5,243.5C 416.331,216.754 415.665,190.088 412.5,163.5 Z"/></g>
<g><path style="opacity:1" fill="#282828" d="M 173.5,414.5 C 196.833,415.833 220.167,415.833 243.5,414.5C 238.537,415.718 233.537,416.718 228.5,417.5C 215.167,417.5 201.833,417.5 188.5,417.5C 183.463,416.718 178.463,415.718 173.5,414.5 Z"/></g>
</svg>
